<?xml version="1.0" standalone="no"?>
<!DOCTYPE svg PUBLIC "-//W3C//DTD SVG 20010904//EN"
 "http://www.w3.org/TR/2001/REC-SVG-20010904/DTD/svg10.dtd">
<svg version="1.0" xmlns="http://www.w3.org/2000/svg"
 width="1600.000000pt" height="1200.000000pt" viewBox="0 0 1600.000000 1200.000000"
 preserveAspectRatio="xMidYMid meet">

<g transform="translate(0.000000,1200.000000) scale(0.100000,-0.100000)"
fill="#000000" stroke="none">
<path d="M7890 9077 c-14 -7 -103 -66 -197 -132 -95 -66 -234 -163 -310 -216
-611 -425 -1656 -1155 -1736 -1211 -54 -38 -96 -75 -94 -81 2 -7 41 -35 88
-63 92 -56 1560 -914 1597 -933 l22 -12 0 291 c0 283 0 290 -20 290 -11 0 -20
3 -20 6 0 7 98 177 440 769 108 187 220 382 249 433 29 50 56 92 59 92 9 0 1
13 184 -305 86 -148 204 -353 263 -455 206 -355 305 -529 305 -535 0 -3 -9 -5
-20 -5 -20 0 -20 -7 -20 -291 l0 -291 53 30 c28 16 315 183 636 371 321 187
587 341 592 341 5 0 9 -99 9 -220 l0 -220 -40 -20 c-76 -39 -118 -142 -90
-225 15 -46 61 -99 100 -115 16 -7 30 -17 30 -22 0 -5 -18 -93 -40 -195 -22
-103 -40 -192 -40 -200 0 -10 28 -13 135 -13 74 0 135 4 135 8 0 4 -14 73 -30
152 -17 80 -36 169 -42 199 -7 33 -8 56 -2 58 32 11 77 48 101 84 22 34 28 53
27 98 0 77 -26 127 -86 164 l-48 30 0 256 0 256 137 80 c173 101 183 109 163
128 -8 8 -204 147 -435 308 -231 161 -465 324 -521 363 -55 39 -259 181 -452
316 -194 135 -470 328 -615 428 -144 101 -279 192 -299 203 -42 22 -128 25
-168 6z"/>
<path d="M7878 7932 c-47 -81 -93 -160 -103 -175 l-17 -27 210 0 210 0 -99
173 c-55 94 -103 173 -108 175 -4 1 -46 -64 -93 -146z"/>
<path d="M7753 7653 c9 -2 23 -2 30 0 6 3 -1 5 -18 5 -16 0 -22 -2 -12 -5z"/>
<path d="M7888 7653 c50 -2 134 -2 185 0 50 1 9 3 -93 3 -102 0 -143 -2 -92
-3z"/>
<path d="M8178 7653 c7 -3 16 -2 19 1 4 3 -2 6 -13 5 -11 0 -14 -3 -6 -6z"/>
<path d="M8210 7634 c0 -8 5 -12 10 -9 6 4 8 11 5 16 -9 14 -15 11 -15 -7z"/>
<path d="M7692 7585 c-14 -30 -12 -31 10 -5 10 10 14 22 9 24 -4 3 -13 -6 -19
-19z"/>
<path d="M8173 7603 c9 -2 23 -2 30 0 6 3 -1 5 -18 5 -16 0 -22 -2 -12 -5z"/>
<path d="M8252 7565 c4 -4 3 -14 -4 -22 -6 -7 -8 -16 -5 -19 3 -3 10 3 16 15
8 15 8 22 -1 27 -7 4 -10 4 -6 -1z"/>
<path d="M7675 7529 c-11 -16 -1 -19 13 -3 7 8 8 14 3 14 -5 0 -13 -5 -16 -11z"/>
<path d="M8284 7501 c1 -22 4 -27 14 -19 10 8 10 14 0 27 -7 9 -13 17 -14 19
-1 1 -1 -11 0 -27z"/>
<path d="M8315 7451 c-3 -5 -1 -12 5 -16 6 -3 8 -17 6 -31 -4 -21 -2 -23 15
-14 24 13 25 22 2 13 -16 -6 -16 -5 -4 10 11 14 11 18 -3 23 -9 3 -13 10 -10
15 3 5 3 9 0 9 -3 0 -7 -4 -11 -9z"/>
<path d="M7658 7443 c7 -3 16 -2 19 1 4 3 -2 6 -13 5 -11 0 -14 -3 -6 -6z"/>
<path d="M7571 7387 c-13 -21 -12 -21 5 -5 10 10 16 20 13 22 -3 3 -11 -5 -18
-17z"/>
<path d="M8366 7377 c3 -10 9 -15 12 -12 3 3 0 11 -7 18 -10 9 -11 8 -5 -6z"/>
<path d="M7584 7365 c-4 -8 -10 -12 -15 -9 -5 3 -9 1 -9 -5 0 -5 9 -9 19 -8
12 1 19 8 18 19 -2 22 -6 23 -13 3z"/>
<path d="M8340 7370 c0 -5 5 -10 11 -10 5 0 7 5 4 10 -3 6 -8 10 -11 10 -2 0
-4 -4 -4 -10z"/>
<path d="M8340 7346 c0 -2 7 -9 15 -16 9 -7 15 -8 15 -2 0 5 -7 12 -15 16 -8
3 -15 4 -15 2z"/>
<path d="M7537 7319 c7 -7 15 -10 18 -7 3 3 -2 9 -12 12 -14 6 -15 5 -6 -5z"/>
<path d="M8395 7310 c3 -5 8 -10 11 -10 2 0 4 5 4 10 0 6 -5 10 -11 10 -5 0
-7 -4 -4 -10z"/>
<path d="M7523 7295 c0 -8 4 -15 9 -15 4 0 8 4 8 9 0 6 -4 12 -8 15 -5 3 -9
-1 -9 -9z"/>
<path d="M8431 7255 c0 -5 6 -19 14 -29 8 -11 15 -15 15 -10 0 6 -7 19 -15 30
-8 10 -14 15 -14 9z"/>
<path d="M8405 7239 c-4 -6 -5 -12 -2 -15 2 -3 7 2 10 11 7 17 1 20 -8 4z"/>
<path d="M8420 7220 c0 -5 5 -10 11 -10 5 0 7 5 4 10 -3 6 -8 10 -11 10 -2 0
-4 -4 -4 -10z"/>
<path d="M7480 7199 c0 -5 5 -7 10 -4 6 3 10 8 10 11 0 2 -4 4 -10 4 -5 0 -10
-5 -10 -11z"/>
<path d="M8480 7180 c6 -11 13 -20 16 -20 2 0 0 9 -6 20 -6 11 -13 20 -16 20
-2 0 0 -9 6 -20z"/>
<path d="M7445 7170 c-3 -5 -1 -10 4 -10 6 0 11 5 11 10 0 6 -2 10 -4 10 -3 0
-8 -4 -11 -10z"/>
<path d="M8480 7139 c0 -5 5 -7 10 -4 6 3 10 8 10 11 0 2 -4 4 -10 4 -5 0 -10
-5 -10 -11z"/>
<path d="M7380 6607 c0 -218 3 -398 8 -400 8 -6 6 783 -3 791 -3 3 -5 -173 -5
-391z"/>
<path d="M7540 6993 c83 -3 127 -8 132 -16 4 -7 8 -228 8 -491 -1 -264 3 -483
7 -487 4 -4 7 219 5 496 l-2 505 -138 -2 -137 -2 125 -3z"/>
<path d="M7821 6995 c3 -2 69 -5 147 -6 l142 -1 3 -511 2 -512 3 518 2 517
-152 0 c-83 0 -149 -2 -147 -5z"/>
<path d="M8248 6496 c-3 -477 -2 -502 15 -492 18 12 23 26 7 26 -5 0 -8 180
-7 478 l2 477 130 5 130 6 -137 2 -138 2 -2 -504z"/>
<path d="M8552 6985 c-6 -26 -6 -783 1 -776 4 4 6 182 4 397 -1 214 -3 385 -5
379z"/>
<path d="M7822 6498 c-1 -269 1 -488 6 -488 6 0 6 520 -1 845 -1 72 -4 -89 -5
-357z"/>
<path d="M6216 6845 c-7 -20 -8 -1669 0 -1677 5 -6 104 39 104 47 0 3 -18 4
-40 3 -33 -2 -37 -5 -25 -14 14 -10 13 -12 -4 -17 -12 -3 -22 1 -25 10 -3 8
-6 382 -6 831 1 721 2 815 15 798 8 -11 15 -14 15 -8 0 7 0 14 0 17 0 3 -3 5
-6 4 -4 0 -10 5 -14 11 -5 8 -9 7 -14 -5z"/>
<path d="M9720 6034 c0 -443 -4 -803 -8 -800 -5 3 -9 -1 -9 -9 0 -8 4 -12 9
-9 4 3 8 1 8 -5 0 -5 -5 -11 -12 -13 -7 -3 -6 -7 5 -11 16 -6 17 47 17 823 0
457 -2 830 -5 830 -3 0 -5 -363 -5 -806z"/>
<path d="M6293 6805 c0 -8 4 -12 9 -9 5 3 6 10 3 15 -9 13 -12 11 -12 -6z"/>
<path d="M9635 6811 c-3 -5 -2 -12 3 -15 5 -3 9 1 9 9 0 17 -3 19 -12 6z"/>
<path d="M9581 6771 c-6 -11 -7 -22 -2 -25 5 -3 11 4 14 16 8 30 1 35 -12 9z"/>
<path d="M9645 6770 c4 -6 11 -8 16 -5 14 9 11 15 -7 15 -8 0 -12 -5 -9 -10z"/>
<path d="M6366 6735 c4 -8 8 -15 10 -15 2 0 4 7 4 15 0 8 -4 15 -10 15 -5 0
-7 -7 -4 -15z"/>
<path d="M6409 6743 c0 -5 -2 -16 -4 -25 -2 -10 0 -18 5 -18 4 0 8 11 8 25 0
22 -7 36 -9 18z"/>
<path d="M6381 6694 c0 -11 3 -14 6 -6 3 7 2 16 -1 19 -3 4 -6 -2 -5 -13z"/>
<path d="M6465 6700 c-3 -6 1 -7 9 -4 18 7 21 14 7 14 -6 0 -13 -4 -16 -10z"/>
<path d="M9446 6694 c-5 -14 -4 -15 9 -4 17 14 19 20 6 20 -5 0 -12 -7 -15
-16z"/>
<path d="M6523 6664 c0 -16 13 -19 21 -5 3 5 0 11 -7 14 -8 3 -14 -1 -14 -9z"/>
<path d="M9397 6659 c7 -7 15 -10 18 -7 3 3 -2 9 -12 12 -14 6 -15 5 -6 -5z"/>
<path d="M9347 6643 c-10 -9 -9 -33 1 -33 4 0 8 9 8 20 0 23 0 22 -9 13z"/>
<path d="M6565 6630 c3 -5 8 -10 11 -10 2 0 4 5 4 10 0 6 -5 10 -11 10 -5 0
-7 -4 -4 -10z"/>
<path d="M6590 6627 c0 -7 9 -13 20 -13 11 0 20 1 20 3 0 1 -9 7 -20 13 -15 8
-20 8 -20 -3z"/>
<path d="M9408 6603 c6 -2 18 -2 25 0 6 3 1 5 -13 5 -14 0 -19 -2 -12 -5z"/>
<path d="M6607 6593 c-8 -7 11 -33 24 -33 17 0 9 20 -8 21 -15 0 -15 2 2 9 15
6 16 9 4 9 -9 1 -19 -2 -22 -6z"/>
<path d="M9317 6586 c-4 -10 -5 -21 -2 -24 9 -9 17 6 13 25 -3 17 -4 17 -11
-1z"/>
<path d="M6680 6586 c0 -2 7 -7 16 -10 8 -3 12 -2 9 4 -6 10 -25 14 -25 6z"/>
<path d="M9229 6573 c-13 -16 -12 -17 4 -4 9 7 17 15 17 17 0 8 -8 3 -21 -13z"/>
<path d="M9260 6570 c-13 -8 -12 -10 3 -10 9 0 17 5 17 10 0 12 -1 12 -20 0z"/>
<path d="M6721 6556 c2 -2 15 -9 29 -15 24 -11 24 -11 6 3 -16 13 -49 24 -35
12z"/>
<path d="M9175 6540 c-3 -5 -2 -10 4 -10 5 0 13 5 16 10 3 6 2 10 -4 10 -5 0
-13 -4 -16 -10z"/>
<path d="M6720 6520 c0 -5 5 -10 11 -10 5 0 7 5 4 10 -3 6 -8 10 -11 10 -2 0
-4 -4 -4 -10z"/>
<path d="M9210 6520 c0 -5 7 -10 16 -10 8 0 12 5 9 10 -3 6 -10 10 -16 10 -5
0 -9 -4 -9 -10z"/>
<path d="M6774 6501 c21 -23 26 -26 26 -11 0 5 -10 15 -22 21 -23 12 -23 12
-4 -10z"/>
<path d="M6831 6493 c7 -12 15 -20 18 -17 3 2 -3 12 -13 22 -17 16 -18 16 -5
-5z"/>
<path d="M9108 6504 c-12 -11 1 -24 23 -24 11 0 17 5 14 10 -4 6 -10 8 -15 5
-4 -3 -10 0 -12 6 -2 5 -7 7 -10 3z"/>
<path d="M9075 6479 c-4 -6 -5 -12 -2 -15 2 -3 7 2 10 11 7 17 1 20 -8 4z"/>
<path d="M6851 6457 c-8 -10 -7 -14 4 -14 8 0 11 5 8 10 -4 6 1 8 11 4 10 -4
20 -7 22 -7 3 0 2 -4 -1 -10 -3 -5 -1 -10 4 -10 18 0 12 19 -8 30 -25 13 -26
13 -40 -3z"/>
<path d="M9035 6450 c-3 -6 1 -7 9 -4 18 7 21 14 7 14 -6 0 -13 -4 -16 -10z"/>
<path d="M6967 6406 c-4 -10 -1 -13 8 -9 8 3 12 9 9 14 -7 12 -11 11 -17 -5z"/>
<path d="M8952 6413 c-7 -3 1 -14 23 -29 43 -29 57 -31 25 -4 -13 11 -27 20
-32 20 -5 0 -6 5 -3 10 7 11 6 11 -13 3z"/>
<path d="M6918 6403 c7 -3 16 -2 19 1 4 3 -2 6 -13 5 -11 0 -14 -3 -6 -6z"/>
<path d="M7084 6346 c11 -9 24 -16 30 -16 12 0 7 5 -24 19 -24 11 -24 11 -6
-3z"/>
<path d="M8841 6346 c-20 -11 -21 -14 -7 -19 10 -4 15 -3 11 3 -9 14 9 12 23
-2 9 -9 12 -9 12 0 0 7 -5 12 -11 12 -5 0 -7 5 -4 10 8 13 5 12 -24 -4z"/>
<path d="M7000 6330 c0 -5 5 -10 11 -10 5 0 7 5 4 10 -3 6 -8 10 -11 10 -2 0
-4 -4 -4 -10z"/>
<path d="M7038 6328 c6 -6 18 -8 28 -6 14 3 12 5 -9 10 -19 3 -25 2 -19 -4z"/>
<path d="M6898 6323 c7 -3 16 -2 19 1 4 3 -2 6 -13 5 -11 0 -14 -3 -6 -6z"/>
<path d="M8968 6323 c6 -2 18 -2 25 0 6 3 1 5 -13 5 -14 0 -19 -2 -12 -5z"/>
<path d="M7150 6310 c35 -24 54 -31 30 -11 -14 11 -29 21 -35 21 -5 0 -3 -5 5
-10z"/>
<path d="M7070 6295 c-7 -9 -8 -15 -2 -15 5 0 12 7 16 15 3 8 4 15 2 15 -2 0
-9 -7 -16 -15z"/>
<path d="M8775 6280 c-3 -5 -1 -10 4 -10 6 0 11 5 11 10 0 6 -2 10 -4 10 -3 0
-8 -4 -11 -10z"/>
<path d="M8674 6212 c-18 -6 -19 -9 -9 -19 10 -10 14 -9 19 3 3 9 11 12 17 8
8 -4 9 -3 5 4 -4 7 -8 12 -9 11 -1 -1 -12 -4 -23 -7z"/>
<path d="M7337 6193 c-8 -8 12 -33 26 -33 6 0 2 7 -9 16 -17 14 -17 15 -1 10
11 -3 16 -2 12 4 -7 12 -19 13 -28 3z"/>
<path d="M8576 6191 c-4 -5 3 -7 14 -4 23 6 26 13 6 13 -8 0 -17 -4 -20 -9z"/>
<path d="M8520 6186 c0 -2 7 -7 16 -10 8 -3 12 -2 9 4 -6 10 -25 14 -25 6z"/>
<path d="M8576 6161 c-10 -11 -16 -26 -13 -33 4 -10 6 -10 6 1 1 8 8 23 18 33
9 10 14 18 11 18 -3 0 -13 -9 -22 -19z"/>
<path d="M7288 6123 c6 -2 18 -2 25 0 6 3 1 5 -13 5 -14 0 -19 -2 -12 -5z"/>
<path d="M8648 6123 c6 -2 18 -2 25 0 6 3 1 5 -13 5 -14 0 -19 -2 -12 -5z"/>
<path d="M8227 5979 c7 -7 15 -10 18 -7 3 3 -2 9 -12 12 -14 6 -15 5 -6 -5z"/>
<path d="M8163 5935 c0 -8 4 -12 9 -9 5 3 6 10 3 15 -9 13 -12 11 -12 -6z"/>
<path d="M7700 5932 c0 -4 10 -9 22 -9 18 -2 20 0 8 7 -18 12 -30 13 -30 2z"/>
<path d="M8590 5460 c0 -11 4 -20 9 -20 5 0 7 9 4 20 -3 11 -7 20 -9 20 -2 0
-4 -9 -4 -20z"/>
<path d="M6780 5455 c-10 -12 -10 -15 4 -15 9 0 16 7 16 15 0 8 -2 15 -4 15
-2 0 -9 -7 -16 -15z"/>
<path d="M6921 5448 c-1 -9 -11 -24 -23 -33 l-23 -17 25 7 c34 10 39 17 30 40
-7 16 -9 17 -9 3z"/>
<path d="M6952 5435 c0 -16 2 -22 5 -12 2 9 2 23 0 30 -3 6 -5 -1 -5 -18z"/>
<path d="M7320 5439 c0 -6 -7 -9 -15 -6 -8 4 -17 3 -19 -2 -3 -4 0 -8 7 -8 7
0 17 -2 22 -4 6 -2 11 1 12 6 1 6 12 13 25 17 22 6 21 6 -4 7 -16 1 -28 -4
-28 -10z"/>
<path d="M9110 5440 c0 -5 5 -10 11 -10 5 0 7 5 4 10 -3 6 -8 10 -11 10 -2 0
-4 -4 -4 -10z"/>
<path d="M6868 5433 c7 -3 16 -2 19 1 4 3 -2 6 -13 5 -11 0 -14 -3 -6 -6z"/>
<path d="M7040 5430 c-13 -8 -12 -10 3 -10 9 0 17 5 17 10 0 12 -1 12 -20 0z"/>
<path d="M7215 5430 c3 -5 8 -10 11 -10 2 0 4 5 4 10 0 6 -5 10 -11 10 -5 0
-7 -4 -4 -10z"/>
<path d="M8618 5433 c-10 -2 -18 -8 -18 -13 0 -4 9 -6 20 -3 11 3 20 9 20 14
0 5 -1 8 -2 8 -2 -1 -11 -3 -20 -6z"/>
<path d="M8680 5430 l-35 -7 37 -2 c20 0 40 4 43 9 7 11 7 11 -45 0z"/>
<path d="M8875 5430 c-3 -5 -1 -10 4 -10 6 0 11 5 11 10 0 6 -2 10 -4 10 -3 0
-8 -4 -11 -10z"/>
<path d="M8437 5410 c-4 -15 -10 -19 -19 -14 -7 4 -9 3 -5 -1 13 -15 35 -14
42 3 3 8 2 19 -3 24 -6 6 -12 0 -15 -12z"/>
<path d="M8977 5419 c7 -7 15 -10 18 -7 3 3 -2 9 -12 12 -14 6 -15 5 -6 -5z"/>
<path d="M6835 5410 c3 -5 1 -10 -6 -10 -7 0 -10 -2 -8 -5 3 -2 15 -2 27 2 23
6 21 23 -4 23 -8 0 -12 -4 -9 -10z"/>
<path d="M8509 5407 c5 -5 19 -7 32 -5 20 3 19 5 -9 9 -20 3 -29 2 -23 -4z"/>
<path d="M9030 5410 c20 -13 33 -13 25 0 -3 6 -14 10 -23 10 -15 0 -15 -2 -2
-10z"/>
<path d="M9078 5413 c7 -3 16 -2 19 1 4 3 -2 6 -13 5 -11 0 -14 -3 -6 -6z"/>
<path d="M6773 5403 c9 -2 23 -2 30 0 6 3 -1 5 -18 5 -16 0 -22 -2 -12 -5z"/>
<path d="M7388 5403 c6 -2 18 -2 25 0 6 3 1 5 -13 5 -14 0 -19 -2 -12 -5z"/>
<path d="M7455 5400 c-16 -7 -17 -9 -3 -9 9 -1 20 4 23 9 7 11 7 11 -20 0z"/>
<path d="M6720 5396 c0 -2 7 -7 16 -10 8 -3 12 -2 9 4 -6 10 -25 14 -25 6z"/>
<path d="M7490 5390 c0 -5 5 -10 11 -10 5 0 7 5 4 10 -3 6 -8 10 -11 10 -2 0
-4 -4 -4 -10z"/>
<path d="M7568 5393 c6 -2 18 -2 25 0 6 3 1 5 -13 5 -14 0 -19 -2 -12 -5z"/>
<path d="M7712 5380 c0 -14 2 -19 5 -12 2 6 2 18 0 25 -3 6 -5 1 -5 -13z"/>
<path d="M9160 5390 c0 -5 5 -10 11 -10 5 0 7 5 4 10 -3 6 -8 10 -11 10 -2 0
-4 -4 -4 -10z"/>
<path d="M9237 5393 c-4 -3 -7 -11 -7 -17 0 -7 3 -7 8 0 4 7 16 14 27 17 19 5
19 5 -1 6 -11 0 -24 -2 -27 -6z"/>
<path d="M6655 5374 c8 -6 12 -14 9 -17 -3 -3 5 -3 18 1 20 5 21 7 4 10 -14 3
-16 6 -6 12 8 5 3 8 -14 7 -22 -2 -24 -4 -11 -13z"/>
<path d="M9197 5379 c7 -7 15 -10 18 -7 3 3 -2 9 -12 12 -14 6 -15 5 -6 -5z"/>
<path d="M9345 5370 c-4 -6 -12 -7 -18 -4 -7 4 -8 3 -4 -1 13 -15 34 -14 34 1
0 17 -4 18 -12 4z"/>
<path d="M7670 5330 c0 -7 24 -20 36 -20 13 0 1 19 -16 23 -11 3 -20 2 -20 -3z"/>
<path d="M6367 5315 c6 -17 25 -15 31 3 2 7 -5 12 -17 12 -14 0 -19 -5 -14
-15z"/>
<path d="M8223 5314 c0 -9 5 -10 19 -3 10 5 18 12 18 14 0 2 -8 3 -18 2 -10 0
-19 -7 -19 -13z"/>
<path d="M7749 5314 c6 -3 8 -11 5 -19 -3 -7 4 -18 15 -24 25 -14 31 -14 31
-1 0 6 -3 9 -7 9 -22 -4 -34 3 -31 17 2 10 -3 18 -10 20 -7 1 -8 0 -3 -2z"/>
<path d="M8170 5309 c0 -5 5 -7 10 -4 6 3 10 8 10 11 0 2 -4 4 -10 4 -5 0 -10
-5 -10 -11z"/>
<path d="M9443 5305 c0 -8 4 -12 9 -9 5 3 6 10 3 15 -9 13 -12 11 -12 -6z"/>
<path d="M6455 5290 c3 -5 8 -10 11 -10 2 0 4 5 4 10 0 6 -5 10 -11 10 -5 0
-7 -4 -4 -10z"/>
<path d="M8176 5291 c-12 -5 -15 -10 -9 -14 6 -4 16 0 23 8 14 17 13 17 -14 6z"/>
<path d="M9682 5260 c0 -14 2 -19 5 -12 2 6 2 18 0 25 -3 6 -5 1 -5 -13z"/>
<path d="M7810 5261 c0 -5 7 -12 16 -15 14 -5 15 -4 4 9 -14 17 -20 19 -20 6z"/>
<path d="M6310 5236 c0 -2 7 -6 15 -10 8 -3 15 -1 15 4 0 6 -7 10 -15 10 -8 0
-15 -2 -15 -4z"/>
<path d="M7858 5228 c5 -5 16 -8 23 -6 8 3 3 7 -10 11 -17 4 -21 3 -13 -5z"/>
<path d="M8060 5233 c0 -6 -15 -20 -32 -32 -18 -11 -28 -21 -23 -21 17 0 70
48 63 56 -5 4 -8 3 -8 -3z"/>
<path d="M7925 5219 c-15 -7 -11 -7 14 -3 19 3 36 2 40 -4 4 -7 16 -6 36 2 30
13 30 13 -20 14 -27 0 -59 -4 -70 -9z"/>
<path d="M9651 5216 c-9 -11 -9 -16 0 -22 7 -4 9 -3 6 3 -4 6 0 14 9 17 8 3
12 2 9 -4 -3 -6 -1 -10 4 -10 6 0 11 7 11 15 0 19 -24 19 -39 1z"/>
<path d="M7915 5190 c3 -5 14 -10 23 -10 15 0 15 2 2 10 -20 13 -33 13 -25 0z"/>
<path d="M6453 4625 c-351 -76 -474 -522 -209 -761 175 -158 462 -159 632 -2
l45 41 -53 54 c-29 29 -57 53 -64 53 -6 0 -19 -9 -30 -21 -35 -39 -115 -72
-185 -77 -172 -12 -302 108 -302 278 0 254 288 374 484 202 l36 -31 59 60 59
61 -40 35 c-62 54 -115 81 -200 103 -90 23 -144 24 -232 5z"/>
<path d="M9223 4620 c-136 -36 -231 -114 -292 -240 -35 -73 -36 -78 -36 -191
0 -113 1 -116 38 -191 26 -54 54 -92 96 -131 72 -66 123 -92 225 -114 201 -44
417 58 504 237 38 78 49 149 41 253 -16 190 -166 350 -363 386 -82 15 -129 13
-213 -9z m237 -171 c55 -25 93 -60 128 -119 24 -40 27 -55 27 -140 0 -85 -3
-100 -27 -140 -56 -95 -137 -142 -245 -142 -110 1 -191 52 -246 156 -17 33
-22 58 -22 126 0 73 4 92 27 136 70 133 218 184 358 123z"/>
<path d="M3510 4190 l0 -430 310 -1 c171 -1 320 -2 333 -2 21 -1 22 3 25 76
l3 77 -246 0 -245 0 0 105 0 105 160 0 160 0 0 75 0 75 -160 0 -160 0 0 100 0
100 245 0 245 0 0 75 0 75 -335 0 -335 0 0 -430z"/>
<path d="M4310 4191 c0 -338 3 -431 13 -432 122 -5 412 2 447 11 221 60 363
266 329 480 -23 146 -106 258 -244 326 l-79 39 -233 3 -233 3 0 -430z m448
249 c168 -73 215 -293 92 -433 -57 -65 -120 -88 -252 -95 l-108 -5 0 275 c0
151 3 278 8 282 4 5 52 6 107 4 75 -4 113 -11 153 -28z"/>
<path d="M5222 4313 l3 -308 29 -59 c55 -112 150 -178 284 -197 174 -25 328
44 400 178 44 82 52 153 52 441 l0 252 -90 0 -90 0 0 -262 c0 -145 -5 -279
-10 -299 -25 -90 -101 -149 -191 -149 -89 0 -150 36 -192 115 -21 38 -22 56
-25 318 l-4 277 -84 0 -85 0 3 -307z"/>
<path d="M7291 4598 c-5 -13 -84 -204 -175 -426 -91 -221 -166 -406 -166 -410
0 -9 172 -3 182 6 4 4 24 52 46 107 l38 100 185 3 184 2 34 -92 c50 -140 44
-135 146 -132 48 1 88 4 91 6 2 2 -74 195 -169 429 l-172 424 -108 3 c-104 3
-108 2 -116 -20z m170 -299 c28 -74 55 -142 60 -151 9 -17 1 -18 -116 -18 -69
0 -125 2 -125 4 0 6 111 289 117 299 8 13 10 9 64 -134z"/>
<path d="M7710 4545 l0 -74 148 -3 147 -3 5 -355 c4 -276 8 -355 18 -354 6 1
46 2 87 3 l75 1 0 355 0 355 145 0 145 0 0 75 0 75 -385 0 -385 0 0 -75z"/>
<path d="M8582 4188 l3 -433 85 1 85 2 3 431 2 431 -90 0 -90 0 2 -432z"/>
<path d="M9932 4188 l3 -433 25 1 c14 1 51 2 82 3 l58 1 2 288 3 287 219 -287
219 -288 78 0 79 0 0 430 0 430 -80 0 -80 0 0 -277 c0 -274 0 -277 -19 -258
-18 19 -71 87 -310 399 l-104 136 -88 0 -89 0 2 -432z"/>
<path d="M11132 4603 c-5 -10 -60 -142 -122 -293 -62 -151 -139 -337 -170
-412 -46 -108 -55 -138 -43 -140 9 -2 51 -1 96 2 l80 5 41 108 41 107 184 -2
183 -3 42 -107 c22 -59 44 -107 49 -108 4 0 47 0 96 0 l90 0 -23 58 c-13 31
-72 176 -131 322 -59 146 -127 312 -150 370 l-42 105 -106 3 c-93 2 -107 1
-115 -15z m167 -305 c30 -79 56 -149 59 -155 3 -10 -24 -13 -117 -13 -67 0
-121 3 -121 7 0 14 115 303 120 303 3 0 30 -64 59 -142z"/>
<path d="M11782 4190 l3 -430 320 -1 320 0 3 75 3 76 -238 2 -238 3 -3 353 -2
352 -85 0 -85 0 2 -430z"/>
<path d="M6356 3411 c-4 -5 3 -7 14 -4 23 6 26 13 6 13 -8 0 -17 -4 -20 -9z"/>
<path d="M6400 3411 c0 -5 10 -11 23 -15 32 -8 37 -7 37 6 0 6 -3 9 -6 5 -3
-3 -17 -2 -30 3 -13 5 -24 6 -24 1z"/>
<path d="M9760 3416 c0 -2 7 -9 15 -16 13 -11 14 -10 9 4 -5 14 -24 23 -24 12z"/>
<path d="M5667 3397 c-3 -8 1 -14 8 -14 7 0 11 6 8 14 -3 7 -6 13 -8 13 -2 0
-5 -6 -8 -13z"/>
<path d="M6011 3394 c0 -11 3 -14 6 -6 3 7 2 16 -1 19 -3 4 -6 -2 -5 -13z"/>
<path d="M6730 3399 c0 -5 5 -7 10 -4 6 3 10 8 10 11 0 2 -4 4 -10 4 -5 0 -10
-5 -10 -11z"/>
<path d="M6775 3399 c-4 -6 -3 -15 3 -21 6 -6 11 -4 15 6 7 18 -9 31 -18 15z"/>
<path d="M7307 3403 c-8 -12 30 -29 40 -19 4 3 -1 6 -9 6 -9 0 -18 5 -20 12
-3 9 -6 9 -11 1z"/>
<path d="M7356 3395 c4 -8 8 -15 10 -15 2 0 4 7 4 15 0 8 -4 15 -10 15 -5 0
-7 -7 -4 -15z"/>
<path d="M7600 3400 c0 -5 5 -10 10 -10 6 0 10 5 10 10 0 6 -4 10 -10 10 -5 0
-10 -4 -10 -10z"/>
<path d="M7734 3398 c-4 -7 -4 -10 1 -6 4 4 14 3 22 -4 11 -8 12 -7 7 6 -7 19
-20 21 -30 4z"/>
<path d="M7850 3398 c0 -6 3 -9 6 -5 3 3 23 -1 45 -8 37 -13 39 -13 39 5 0 11
-5 20 -11 20 -5 0 -7 -4 -4 -10 3 -5 -1 -10 -10 -10 -9 0 -14 3 -12 8 3 4 -8
8 -24 9 -16 1 -29 -3 -29 -9z"/>
<path d="M8980 3400 c0 -5 7 -10 16 -10 8 0 12 5 9 10 -3 6 -10 10 -16 10 -5
0 -9 -4 -9 -10z"/>
<path d="M9310 3402 c0 -7 -10 -13 -22 -13 -19 -1 -20 -2 -4 -6 20 -5 44 12
33 24 -4 3 -7 1 -7 -5z"/>
<path d="M9692 3401 c-11 -6 -9 -9 7 -14 12 -3 22 1 25 9 6 16 -12 18 -32 5z"/>
<path d="M10221 3386 c-1 -16 0 -27 2 -25 1 2 11 15 22 29 14 17 15 21 3 12
-13 -10 -17 -10 -21 0 -3 7 -6 0 -6 -16z"/>
<path d="M6885 3390 c-4 -6 3 -10 14 -10 25 0 27 6 6 13 -8 4 -17 2 -20 -3z"/>
<path d="M6956 3391 c-3 -4 6 -6 19 -3 14 2 25 6 25 8 0 8 -39 4 -44 -5z"/>
<path d="M8157 3381 c4 -9 10 -63 14 -121 l6 -105 0 121 c0 95 -3 121 -14 121
-9 0 -11 -6 -6 -16z"/>
<path d="M8905 3390 c-3 -5 -1 -10 4 -10 6 0 11 5 11 10 0 6 -2 10 -4 10 -3 0
-8 -4 -11 -10z"/>
<path d="M8930 3385 c0 -8 5 -15 10 -15 6 0 10 7 10 15 0 8 -4 15 -10 15 -5 0
-10 -7 -10 -15z"/>
<path d="M9838 3393 c7 -3 16 -2 19 1 4 3 -2 6 -13 5 -11 0 -14 -3 -6 -6z"/>
<path d="M6388 3383 c7 -3 16 -2 19 1 4 3 -2 6 -13 5 -11 0 -14 -3 -6 -6z"/>
<path d="M6740 3380 c-13 -8 -12 -10 3 -10 9 0 17 5 17 10 0 12 -1 12 -20 0z"/>
<path d="M8700 3380 c0 -5 4 -10 9 -10 6 0 13 5 16 10 3 6 -1 10 -9 10 -9 0
-16 -4 -16 -10z"/>
<path d="M10286 3377 c3 -10 9 -15 12 -12 3 3 0 11 -7 18 -10 9 -11 8 -5 -6z"/>
<path d="M5404 3205 c0 -99 2 -138 3 -87 2 51 2 132 0 180 -1 48 -3 6 -3 -93z"/>
<path d="M5642 3355 c0 -16 2 -22 5 -12 2 9 2 23 0 30 -3 6 -5 -1 -5 -18z"/>
<path d="M5970 3376 c0 -2 7 -7 16 -10 8 -3 12 -2 9 4 -6 10 -25 14 -25 6z"/>
<path d="M6284 3369 c-3 -5 6 -9 20 -9 32 0 41 15 10 16 -13 1 -27 -2 -30 -7z"/>
<path d="M7304 3210 c0 -96 2 -136 3 -87 2 48 2 126 0 175 -1 48 -3 8 -3 -88z"/>
<path d="M8440 3248 c0 -72 2 -129 6 -126 8 9 10 258 2 258 -5 0 -8 -59 -8
-132z"/>
<path d="M9627 3373 c-4 -3 -7 -11 -7 -17 0 -7 3 -7 8 0 4 7 16 14 27 17 19 5
19 5 -1 6 -11 0 -24 -2 -27 -6z"/>
<path d="M9690 3370 c8 -5 20 -10 25 -10 6 0 3 5 -5 10 -8 5 -19 10 -25 10 -5
0 -3 -5 5 -10z"/>
<path d="M9798 3373 c7 -3 16 -2 19 1 4 3 -2 6 -13 5 -11 0 -14 -3 -6 -6z"/>
<path d="M10244 3355 c-4 -14 -4 -29 0 -32 3 -4 6 3 6 13 0 11 5 25 12 32 9 9
9 12 0 12 -6 0 -14 -11 -18 -25z"/>
<path d="M10532 3232 c2 -83 0 -154 -5 -156 -4 -3 -2 -3 4 -2 14 2 19 280 6
299 -4 7 -6 -57 -5 -141z"/>
<path d="M5660 3323 c0 -55 5 -54 14 5 4 26 2 42 -4 42 -5 0 -10 -21 -10 -47z"/>
<path d="M6240 3350 c-6 -11 -8 -20 -6 -20 3 0 10 9 16 20 6 11 8 20 6 20 -3
0 -10 -9 -16 -20z"/>
<path d="M9294 3205 c0 -93 2 -133 3 -88 2 45 2 122 0 170 -1 48 -3 12 -3 -82z"/>
<path d="M6013 3310 c0 -30 2 -43 4 -27 2 15 2 39 0 55 -2 15 -4 2 -4 -28z"/>
<path d="M9885 3351 c6 -11 4 -13 -8 -8 -25 9 -21 2 11 -19 26 -17 27 -17 12
1 -8 10 -13 20 -12 22 2 3 0 8 -4 11 -4 4 -3 1 1 -7z"/>
<path d="M6900 3329 c0 -10 4 -21 10 -24 6 -4 7 1 3 11 -5 13 -3 16 10 11 9
-3 19 -2 22 2 2 5 -6 11 -20 13 -19 4 -25 1 -25 -13z"/>
<path d="M8894 3338 c3 -10 -2 -22 -12 -27 -9 -6 -12 -10 -7 -11 6 0 16 4 24
9 10 7 11 12 1 27 -9 16 -11 16 -6 2z"/>
<path d="M9646 3333 c-6 -14 -5 -15 5 -6 7 7 10 15 7 18 -3 3 -9 -2 -12 -12z"/>
<path d="M9930 3343 c0 -6 8 -17 18 -24 16 -13 16 -13 2 6 -8 11 -16 22 -17
24 -2 2 -3 0 -3 -6z"/>
<path d="M10315 3343 c3 -3 0 -11 -5 -18 -7 -8 -5 -12 4 -12 14 0 16 22 3 32
-4 3 -5 2 -2 -2z"/>
<path d="M5739 3331 c7 -5 11 -13 8 -18 -3 -5 0 -10 8 -10 8 0 15 3 15 7 0 10
-23 30 -34 30 -6 0 -5 -4 3 -9z"/>
<path d="M8855 3160 c0 -99 3 -180 7 -180 4 0 5 7 2 15 -5 12 -2 14 12 8 16
-6 17 -5 6 9 -10 12 -12 51 -10 147 2 72 0 131 -4 131 -13 0 -9 38 5 43 8 4 7
6 -3 6 -13 1 -15 -25 -15 -179z"/>
<path d="M5683 3312 c1 -14 5 -18 11 -12 7 7 6 14 -1 21 -9 9 -12 7 -10 -9z"/>
<path d="M5643 3275 c0 -27 2 -38 4 -22 2 15 2 37 0 50 -2 12 -4 0 -4 -28z"/>
<path d="M8133 3260 c0 -36 2 -50 4 -32 2 17 2 47 0 65 -2 17 -4 3 -4 -33z"/>
<path d="M8154 3235 c0 -49 1 -71 3 -48 2 23 2 64 0 90 -2 26 -3 8 -3 -42z"/>
<path d="M7722 3143 c2 -170 6 -150 10 55 2 61 0 112 -4 112 -5 0 -7 -75 -6
-167z"/>
<path d="M10241 3294 c0 -11 3 -14 6 -6 3 7 2 16 -1 19 -3 4 -6 -2 -5 -13z"/>
<path d="M10347 3290 c7 -25 23 -37 23 -17 0 8 -6 20 -14 26 -12 10 -13 8 -9
-9z"/>
<path d="M9565 3290 c-3 -5 -1 -10 4 -10 6 0 11 5 11 10 0 6 -2 10 -4 10 -3 0
-8 -4 -11 -10z"/>
<path d="M9916 3285 c3 -6 19 -11 37 -12 20 0 23 1 10 4 -13 2 -23 8 -23 12 0
4 -6 8 -14 8 -8 0 -12 -5 -10 -12z"/>
<path d="M10306 3291 c-3 -5 2 -17 12 -28 9 -10 13 -13 9 -6 -5 6 -6 17 -3 22
4 5 2 12 -3 15 -5 4 -12 2 -15 -3z"/>
<path d="M6931 3156 c0 -73 5 -139 10 -147 5 -9 9 44 9 134 0 95 -4 147 -10
147 -7 0 -10 -47 -9 -134z"/>
<path d="M9596 3264 c-4 -14 -5 -28 -3 -31 3 -2 8 8 11 23 4 14 5 28 3 31 -3
2 -8 -8 -11 -23z"/>
<path d="M7754 3160 c0 -69 1 -97 3 -62 2 34 2 90 0 125 -2 34 -3 6 -3 -63z"/>
<path d="M6291 3253 c7 -12 15 -20 18 -17 3 2 -3 12 -13 22 -17 16 -18 16 -5
-5z"/>
<path d="M5756 3248 c3 -5 10 -6 15 -3 13 9 11 12 -6 12 -8 0 -12 -4 -9 -9z"/>
<path d="M5817 3251 c6 -7 9 -19 7 -26 -3 -6 1 -17 9 -23 11 -9 14 -8 14 3 0
8 -5 11 -10 8 -6 -4 -8 0 -4 10 3 9 -1 21 -11 28 -14 11 -15 11 -5 0z"/>
<path d="M9930 3256 c0 -2 7 -9 15 -16 9 -7 15 -8 15 -2 0 5 -7 12 -15 16 -8
3 -15 4 -15 2z"/>
<path d="M5679 3238 c-2 -7 -1 -56 2 -108 l6 -95 0 108 c1 103 -1 121 -8 95z"/>
<path d="M6012 3225 c0 -16 2 -22 5 -12 2 9 2 23 0 30 -3 6 -5 -1 -5 -18z"/>
<path d="M9975 3240 c3 -5 8 -10 11 -10 2 0 4 5 4 10 0 6 -5 10 -11 10 -5 0
-7 -4 -4 -10z"/>
<path d="M8902 3220 c0 -14 2 -19 5 -12 2 6 2 18 0 25 -3 6 -5 1 -5 -13z"/>
<path d="M9541 3223 c0 -12 5 -24 12 -27 10 -5 10 -7 0 -12 -7 -3 -13 -10 -13
-16 0 -6 6 -6 15 2 17 14 20 40 6 40 -5 0 -12 8 -14 18 -4 13 -5 12 -6 -5z"/>
<path d="M10350 3229 c0 -5 5 -7 10 -4 6 3 10 8 10 11 0 2 -4 4 -10 4 -5 0
-10 -5 -10 -11z"/>
<path d="M6360 3220 c0 -5 5 -10 10 -10 6 0 10 5 10 10 0 6 -4 10 -10 10 -5 0
-10 -4 -10 -10z"/>
<path d="M10391 3227 c2 -1 13 -9 24 -17 19 -14 19 -14 6 3 -7 9 -18 17 -24
17 -6 0 -8 -1 -6 -3z"/>
<path d="M5647 3213 c-4 -3 -7 -49 -7 -100 0 -84 2 -93 15 -79 18 18 22 166 4
166 -5 0 -7 5 -4 10 7 11 2 13 -8 3z"/>
<path d="M6424 3205 c3 -23 13 -27 36 -15 12 6 19 14 16 17 -3 3 -12 0 -21 -7
-13 -11 -14 -10 -9 4 4 10 1 16 -9 16 -8 0 -14 -7 -13 -15z"/>
<path d="M9942 3190 c0 -19 2 -27 5 -17 2 9 2 25 0 35 -3 9 -5 1 -5 -18z"/>
<path d="M9992 3195 c0 -16 2 -22 5 -12 2 9 2 23 0 30 -3 6 -5 -1 -5 -18z"/>
<path d="M10380 3201 c0 -5 6 -12 13 -14 9 -4 9 -6 -1 -6 -9 -1 -7 -10 8 -28
12 -16 25 -28 28 -28 4 0 12 -3 17 -7 6 -3 11 4 11 18 2 20 0 21 -13 9 -19
-19 -27 -19 -19 1 4 10 2 13 -6 8 -7 -5 -9 -1 -6 13 3 13 -1 24 -13 32 -11 6
-19 7 -19 2z"/>
<path d="M3510 3189 c0 -5 5 -7 10 -4 6 3 10 8 10 11 0 2 -4 4 -10 4 -5 0 -10
-5 -10 -11z"/>
<path d="M5046 3191 c-3 -5 5 -8 18 -7 13 0 22 4 19 9 -6 10 -31 9 -37 -2z"/>
<path d="M6320 3190 c8 -5 26 -10 39 -10 32 0 24 6 -19 14 -25 4 -31 3 -20 -4z"/>
<path d="M10244 3115 c0 -49 1 -71 3 -48 2 23 2 64 0 90 -2 26 -3 8 -3 -42z"/>
<path d="M10825 3190 c29 -13 1495 -13 1495 0 0 7 -259 10 -757 9 -432 0 -749
-4 -738 -9z"/>
<path d="M5813 3180 c2 -8 12 -16 23 -17 13 -2 15 -1 4 4 -8 3 -19 11 -23 17
-6 7 -7 6 -4 -4z"/>
<path d="M5864 3165 c0 -19 3 -22 13 -13 10 8 10 14 2 24 -15 18 -15 18 -15
-11z"/>
<path d="M6012 3170 c0 -14 2 -19 5 -12 2 6 2 18 0 25 -3 6 -5 1 -5 -13z"/>
<path d="M9580 3171 c0 -6 4 -13 10 -16 6 -3 7 1 4 9 -7 18 -14 21 -14 7z"/>
<path d="M6518 3153 c7 -3 16 -2 19 1 4 3 -2 6 -13 5 -11 0 -14 -3 -6 -6z"/>
<path d="M5883 3135 c-10 -11 -9 -13 7 -12 20 1 26 12 13 20 -5 3 -14 -1 -20
-8z"/>
<path d="M8133 3131 c0 -11 5 -18 9 -15 4 3 5 11 1 19 -7 21 -12 19 -10 -4z"/>
<path d="M5990 3130 c0 -6 7 -10 15 -10 8 0 15 2 15 4 0 2 -7 6 -15 10 -8 3
-15 1 -15 -4z"/>
<path d="M6500 3136 c0 -2 7 -9 15 -16 9 -7 15 -8 15 -2 0 5 -7 12 -15 16 -8
3 -15 4 -15 2z"/>
<path d="M8176 3105 c4 -8 8 -15 10 -15 2 0 4 7 4 15 0 8 -4 15 -10 15 -5 0
-7 -7 -4 -15z"/>
<path d="M5920 3106 c0 -2 8 -10 18 -17 15 -13 16 -12 3 4 -13 16 -21 21 -21
13z"/>
<path d="M9570 3101 c0 -6 4 -13 10 -16 6 -3 7 1 4 9 -7 18 -14 21 -14 7z"/>
<path d="M6008 3054 c3 -34 2 -45 -7 -40 -6 4 -11 3 -11 -3 0 -5 -6 -16 -14
-24 -13 -12 -11 -14 13 -13 28 1 28 2 30 64 1 34 -2 62 -7 62 -5 0 -7 -21 -4
-46z"/>
<path d="M6522 3080 c-7 -11 -8 -20 -3 -20 9 0 24 30 18 36 -1 2 -8 -6 -15
-16z"/>
<path d="M9607 3086 c-4 -10 -1 -13 8 -9 8 3 12 9 9 14 -7 12 -11 11 -17 -5z"/>
<path d="M10446 3088 c3 -5 10 -6 15 -3 13 9 11 12 -6 12 -8 0 -12 -4 -9 -9z"/>
<path d="M6542 3044 c-14 -13 -19 -25 -13 -28 6 -4 18 5 27 19 22 33 15 37
-14 9z"/>
<path d="M8438 3058 c-9 -23 17 -31 34 -10 12 15 11 16 -4 4 -14 -11 -17 -10
-20 5 -3 16 -4 16 -10 1z"/>
<path d="M9925 3059 c7 -11 35 -12 35 -1 0 4 -9 8 -20 9 -11 1 -18 -2 -15 -8z"/>
<path d="M10475 3061 c-3 -5 -1 -12 5 -16 5 -3 10 1 10 9 0 18 -6 21 -15 7z"/>
<path d="M6227 3047 c-3 -8 1 -14 8 -14 7 0 11 6 8 14 -3 7 -6 13 -8 13 -2 0
-5 -6 -8 -13z"/>
<path d="M8160 3040 c6 -11 13 -20 16 -20 2 0 0 9 -6 20 -6 11 -13 20 -16 20
-2 0 0 -9 6 -20z"/>
<path d="M8201 3051 c-12 -8 -9 -11 11 -16 23 -6 26 -10 18 -31 -5 -13 -6 -24
-1 -24 5 0 11 12 14 26 3 20 0 28 -14 31 -10 3 -16 9 -13 14 7 11 3 11 -15 0z"/>
<path d="M9580 3056 c0 -2 7 -9 15 -16 13 -11 14 -10 9 4 -5 14 -24 23 -24 12z"/>
<path d="M10510 3053 c0 -4 5 -15 10 -23 8 -13 10 -13 10 2 0 9 -4 20 -10 23
-5 3 -10 3 -10 -2z"/>
<path d="M6490 3035 c-7 -9 -8 -15 -2 -15 5 0 12 7 16 15 3 8 4 15 2 15 -2 0
-9 -7 -16 -15z"/>
<path d="M9657 3039 c7 -7 15 -10 18 -7 3 3 -2 9 -12 12 -14 6 -15 5 -6 -5z"/>
<path d="M9857 3039 c-9 -6 -14 -15 -11 -21 4 -6 0 -14 -7 -19 -8 -5 -9 -9 -3
-9 12 0 49 49 42 55 -2 2 -11 -1 -21 -6z"/>
<path d="M6252 3021 c-11 -7 -10 -9 3 -14 11 -5 14 -3 9 5 -5 8 -2 9 10 5 10
-4 15 -3 11 3 -7 12 -16 12 -33 1z"/>
<path d="M9685 3020 c-3 -6 1 -7 9 -4 18 7 21 14 7 14 -6 0 -13 -4 -16 -10z"/>
<path d="M6330 3010 c0 -5 5 -10 11 -10 5 0 7 5 4 10 -3 6 -8 10 -11 10 -2 0
-4 -4 -4 -10z"/>
<path d="M7300 3004 c0 -8 5 -12 10 -9 6 4 8 11 5 16 -9 14 -15 11 -15 -7z"/>
<path d="M8260 3010 c-9 -6 -10 -10 -3 -10 6 0 15 5 18 10 8 12 4 12 -15 0z"/>
<path d="M9796 3005 c-11 -8 -16 -15 -10 -15 5 0 18 7 28 15 11 8 16 15 10 15
-5 0 -18 -7 -28 -15z"/>
<path d="M10220 3010 c0 -6 7 -10 15 -10 8 0 15 2 15 4 0 2 -7 6 -15 10 -8 3
-15 1 -15 -4z"/>
<path d="M6380 2999 c0 -5 -6 -7 -12 -3 -9 5 -10 4 -3 -3 6 -6 25 -14 43 -18
32 -7 33 -6 20 14 -13 22 -48 29 -48 10z"/>
<path d="M6490 2993 c-13 -15 -12 -16 4 -10 10 4 20 7 22 7 2 0 4 5 4 10 0 15
-13 12 -30 -7z"/>
<path d="M9273 2991 c1 -12 6 -17 16 -13 10 4 11 7 3 10 -7 2 -10 8 -6 13 3 5
1 9 -5 9 -5 0 -9 -9 -8 -19z"/>
<path d="M9704 3002 c3 -5 0 -13 -6 -15 -9 -4 -10 -6 -1 -6 17 -1 25 16 12 25
-7 4 -9 3 -5 -4z"/>
<path d="M6290 2996 c0 -2 9 -6 20 -9 11 -3 18 -1 14 4 -5 9 -34 13 -34 5z"/>
<path d="M8361 2986 c-8 -10 -3 -11 19 -8 35 5 37 8 10 15 -10 3 -24 -1 -29
-7z"/>
<path d="M5360 2979 c0 -5 11 -9 25 -9 14 0 25 2 25 4 0 2 -11 6 -25 8 -14 3
-25 1 -25 -3z"/>
<path d="M7350 2979 c0 -5 5 -7 10 -4 6 3 10 8 10 11 0 2 -4 4 -10 4 -5 0 -10
-5 -10 -11z"/>
<path d="M8285 2980 c28 -12 47 -12 40 0 -3 6 -18 10 -33 9 -24 0 -25 -1 -7
-9z"/>
<path d="M9725 2980 c-3 -6 1 -7 9 -4 18 7 21 14 7 14 -6 0 -13 -4 -16 -10z"/>
<path d="M10226 2982 c-2 -4 4 -8 14 -8 10 0 16 4 14 8 -3 4 -9 8 -14 8 -5 0
-11 -4 -14 -8z"/>
<path d="M10548 2973 c6 -2 18 -2 25 0 6 3 1 5 -13 5 -14 0 -19 -2 -12 -5z"/>
</g>
</svg>
